<mxfile host="app.diagrams.net" agent="Mozilla/5.0 (Macintosh; Intel Mac OS X 10_15_7) AppleWebKit/537.36 (KHTML, like Gecko) Chrome/140.0.0.0 Safari/537.36" version="28.2.3">
  <diagram name="Page-1" id="LkRhmX5udIgWVVvKP2tT">
    <mxGraphModel dx="976" dy="1121" grid="1" gridSize="10" guides="1" tooltips="1" connect="1" arrows="1" fold="1" page="1" pageScale="1" pageWidth="827" pageHeight="1169" math="0" shadow="0">
      <root>
        <mxCell id="0" />
        <mxCell id="1" parent="0" />
        <mxCell id="s7MB-vvQS7g_MF5XI4Nz-1" value="BUT 3" style="rounded=1;whiteSpace=wrap;html=1;fontSize=20;" parent="1" vertex="1">
          <mxGeometry x="354" y="10" width="120" height="60" as="geometry" />
        </mxCell>
        <mxCell id="p2Pn64rqvdL8HzTHEJ3j-6" style="edgeStyle=orthogonalEdgeStyle;rounded=0;orthogonalLoop=1;jettySize=auto;html=1;exitX=1;exitY=0.5;exitDx=0;exitDy=0;entryX=0;entryY=0.5;entryDx=0;entryDy=0;" parent="1" source="s7MB-vvQS7g_MF5XI4Nz-4" target="p2Pn64rqvdL8HzTHEJ3j-5" edge="1">
          <mxGeometry relative="1" as="geometry" />
        </mxCell>
        <mxCell id="p2Pn64rqvdL8HzTHEJ3j-19" style="edgeStyle=orthogonalEdgeStyle;rounded=0;orthogonalLoop=1;jettySize=auto;html=1;exitX=1;exitY=0.5;exitDx=0;exitDy=0;entryX=0;entryY=0.5;entryDx=0;entryDy=0;" parent="1" source="s7MB-vvQS7g_MF5XI4Nz-4" target="p2Pn64rqvdL8HzTHEJ3j-15" edge="1">
          <mxGeometry relative="1" as="geometry" />
        </mxCell>
        <mxCell id="zf794vr-wGnuXbDl1zNP-1" style="edgeStyle=orthogonalEdgeStyle;rounded=0;orthogonalLoop=1;jettySize=auto;html=1;exitX=1;exitY=0.5;exitDx=0;exitDy=0;entryX=0;entryY=0.5;entryDx=0;entryDy=0;" parent="1" source="s7MB-vvQS7g_MF5XI4Nz-4" target="Y7sgMaPEG-YXRO2COyQE-9" edge="1">
          <mxGeometry relative="1" as="geometry" />
        </mxCell>
        <mxCell id="s7MB-vvQS7g_MF5XI4Nz-4" value="DRC" style="ellipse;whiteSpace=wrap;html=1;fontSize=15;" parent="1" vertex="1">
          <mxGeometry x="50" y="260" width="110" height="70" as="geometry" />
        </mxCell>
        <mxCell id="p2Pn64rqvdL8HzTHEJ3j-31" style="edgeStyle=orthogonalEdgeStyle;rounded=0;orthogonalLoop=1;jettySize=auto;html=1;exitX=1;exitY=0.5;exitDx=0;exitDy=0;entryX=0;entryY=0.5;entryDx=0;entryDy=0;" parent="1" source="s7MB-vvQS7g_MF5XI4Nz-5" target="p2Pn64rqvdL8HzTHEJ3j-27" edge="1">
          <mxGeometry relative="1" as="geometry" />
        </mxCell>
        <mxCell id="s7MB-vvQS7g_MF5XI4Nz-5" value="MDE" style="ellipse;whiteSpace=wrap;html=1;fontSize=15;" parent="1" vertex="1">
          <mxGeometry x="50" y="644" width="110" height="70" as="geometry" />
        </mxCell>
        <mxCell id="p2Pn64rqvdL8HzTHEJ3j-42" style="edgeStyle=orthogonalEdgeStyle;rounded=0;orthogonalLoop=1;jettySize=auto;html=1;exitX=1;exitY=0.5;exitDx=0;exitDy=0;entryX=0;entryY=0.5;entryDx=0;entryDy=0;" parent="1" source="s7MB-vvQS7g_MF5XI4Nz-9" target="p2Pn64rqvdL8HzTHEJ3j-33" edge="1">
          <mxGeometry relative="1" as="geometry" />
        </mxCell>
        <mxCell id="s7MB-vvQS7g_MF5XI4Nz-9" value="MPV" style="ellipse;whiteSpace=wrap;html=1;fontSize=15;" parent="1" vertex="1">
          <mxGeometry x="50" y="882" width="110" height="70" as="geometry" />
        </mxCell>
        <mxCell id="s7MB-vvQS7g_MF5XI4Nz-72" value="&lt;a href=&quot;mailto:tc.but-3a-drc_auto@etu.iut-tlse3.fr&quot;&gt;tc.but-3a-drc_auto@etu.iut-tlse3.fr&lt;/a&gt;" style="text;html=1;strokeColor=none;fillColor=none;align=left;verticalAlign=middle;whiteSpace=wrap;rounded=0;fontSize=15;fontColor=#055AB2;" parent="1" vertex="1">
          <mxGeometry y="330" width="240" height="30" as="geometry" />
        </mxCell>
        <mxCell id="s7MB-vvQS7g_MF5XI4Nz-74" value="&lt;a href=&quot;mailto:tc.but-3a-mpv_auto@etu.iut-tlse3.fr&quot;&gt;tc.but-3a-mpv_auto@etu.iut-tlse3.fr&lt;/a&gt;" style="text;html=1;strokeColor=none;fillColor=none;align=left;verticalAlign=middle;whiteSpace=wrap;rounded=0;fontSize=15;fontColor=#055AB2;" parent="1" vertex="1">
          <mxGeometry y="952" width="250" height="30" as="geometry" />
        </mxCell>
        <mxCell id="mfzl7yPazm54SCrmdIJB-1" value="&lt;a href=&quot;mailto:tc.but-3a-mde_auto@etu.iut-tlse3.fr&quot;&gt;tc.but-3a-mde_auto@etu.iut-tlse3.fr&lt;/a&gt;" style="text;html=1;strokeColor=none;fillColor=none;align=left;verticalAlign=middle;whiteSpace=wrap;rounded=0;fontSize=15;fontColor=#055AB2;" parent="1" vertex="1">
          <mxGeometry y="714" width="260" height="30" as="geometry" />
        </mxCell>
        <mxCell id="p2Pn64rqvdL8HzTHEJ3j-9" style="edgeStyle=orthogonalEdgeStyle;rounded=0;orthogonalLoop=1;jettySize=auto;html=1;exitX=1;exitY=0.5;exitDx=0;exitDy=0;entryX=0;entryY=0.5;entryDx=0;entryDy=0;" parent="1" source="p2Pn64rqvdL8HzTHEJ3j-5" target="p2Pn64rqvdL8HzTHEJ3j-7" edge="1">
          <mxGeometry relative="1" as="geometry" />
        </mxCell>
        <mxCell id="p2Pn64rqvdL8HzTHEJ3j-5" value="groupe DRC1&lt;br style=&quot;border-color: var(--border-color);&quot;&gt;TT5A&lt;br style=&quot;border-color: var(--border-color);&quot;&gt;&lt;a href=&quot;mailto:tt5a_auto@etu.iut-tlse3.fr&quot; style=&quot;border: 0px; box-sizing: inherit; font-family: Raleway, sans-serif; font-size: 1.1em; background-color: rgb(255, 255, 255); line-height: inherit; color: rgb(0, 144, 233); text-decoration-line: none; cursor: pointer; margin: 0px; padding: 0px; text-size-adjust: 100%; font-variant-numeric: inherit; font-variant-east-asian: inherit; font-variant-alternates: inherit; font-variant-position: inherit; font-stretch: inherit; font-optical-sizing: inherit; font-kerning: inherit; font-feature-settings: inherit; font-variation-settings: inherit; vertical-align: baseline; transition: background-color 300ms ease-out; -webkit-tap-highlight-color: rgba(0, 0, 0, 0); text-align: left;&quot;&gt;tt5a_auto@etu.iut-tlse3.fr&lt;/a&gt;" style="rounded=0;whiteSpace=wrap;html=1;fillStyle=hatch;fillColor=none;" parent="1" vertex="1">
          <mxGeometry x="360" y="130" width="170" height="50" as="geometry" />
        </mxCell>
        <mxCell id="p2Pn64rqvdL8HzTHEJ3j-7" value="groupe DRC1.1&lt;br style=&quot;border-color: var(--border-color);&quot;&gt;TT5A1&lt;br style=&quot;border-color: var(--border-color);&quot;&gt;&lt;a style=&quot;box-sizing: inherit; font-family: Raleway, sans-serif; font-size: 1.1em; background-color: rgb(255, 255, 255); line-height: inherit; color: rgb(0, 144, 233); text-decoration-line: none; cursor: pointer; margin: 0px; padding: 0px; border: 0px; text-size-adjust: 100%; font-variant-numeric: inherit; font-variant-east-asian: inherit; font-variant-alternates: inherit; font-variant-position: inherit; font-stretch: inherit; font-optical-sizing: inherit; font-kerning: inherit; font-feature-settings: inherit; font-variation-settings: inherit; vertical-align: baseline; transition: background-color 300ms ease-out; -webkit-tap-highlight-color: rgba(0, 0, 0, 0); text-align: left;&quot; href=&quot;mailto:tt5a1_auto@etu.iut-tlse3.fr&quot;&gt;tt5a1_auto@etu.iut-tlse3.fr&lt;/a&gt;" style="rounded=0;whiteSpace=wrap;html=1;" parent="1" vertex="1">
          <mxGeometry x="630" y="100" width="170" height="50" as="geometry" />
        </mxCell>
        <mxCell id="p2Pn64rqvdL8HzTHEJ3j-8" value="groupe DRC1.2&lt;br style=&quot;border-color: var(--border-color);&quot;&gt;TT5A2&lt;br style=&quot;border-color: var(--border-color);&quot;&gt;&lt;a href=&quot;mailto:tt5a2_auto@etu.iut-tlse3.fr&quot; style=&quot;box-sizing: inherit; font-family: Raleway, sans-serif; font-size: 1.1em; background-color: rgb(255, 255, 255); line-height: inherit; color: rgb(0, 144, 233); text-decoration-line: none; cursor: pointer; margin: 0px; padding: 0px; border: 0px; text-size-adjust: 100%; font-variant-numeric: inherit; font-variant-east-asian: inherit; font-variant-alternates: inherit; font-variant-position: inherit; font-stretch: inherit; font-optical-sizing: inherit; font-kerning: inherit; font-feature-settings: inherit; font-variation-settings: inherit; vertical-align: baseline; transition: background-color 300ms ease-out; -webkit-tap-highlight-color: rgba(0, 0, 0, 0); text-align: left;&quot;&gt;tt5a2_auto@etu.iut-tlse3.fr&lt;/a&gt;" style="rounded=0;whiteSpace=wrap;html=1;" parent="1" vertex="1">
          <mxGeometry x="630" y="170" width="170" height="50" as="geometry" />
        </mxCell>
        <mxCell id="p2Pn64rqvdL8HzTHEJ3j-10" style="edgeStyle=orthogonalEdgeStyle;rounded=0;orthogonalLoop=1;jettySize=auto;html=1;exitX=1;exitY=0.5;exitDx=0;exitDy=0;entryX=-0.01;entryY=0.611;entryDx=0;entryDy=0;entryPerimeter=0;" parent="1" source="p2Pn64rqvdL8HzTHEJ3j-5" target="p2Pn64rqvdL8HzTHEJ3j-8" edge="1">
          <mxGeometry relative="1" as="geometry" />
        </mxCell>
        <mxCell id="p2Pn64rqvdL8HzTHEJ3j-14" style="edgeStyle=orthogonalEdgeStyle;rounded=0;orthogonalLoop=1;jettySize=auto;html=1;exitX=1;exitY=0.5;exitDx=0;exitDy=0;entryX=0;entryY=0.5;entryDx=0;entryDy=0;" parent="1" source="p2Pn64rqvdL8HzTHEJ3j-15" target="p2Pn64rqvdL8HzTHEJ3j-16" edge="1">
          <mxGeometry relative="1" as="geometry" />
        </mxCell>
        <mxCell id="p2Pn64rqvdL8HzTHEJ3j-15" value="groupe DRC2&lt;br style=&quot;border-color: var(--border-color);&quot;&gt;TT5B&lt;br style=&quot;border-color: var(--border-color);&quot;&gt;&lt;a href=&quot;mailto:tt5b_auto@etu.iut-tlse3.fr&quot; style=&quot;border: 0px; box-sizing: inherit; font-family: Raleway, sans-serif; font-size: 1.1em; background-color: rgb(255, 255, 255); line-height: inherit; color: rgb(0, 144, 233); text-decoration-line: none; cursor: pointer; margin: 0px; padding: 0px; text-size-adjust: 100%; font-variant-numeric: inherit; font-variant-east-asian: inherit; font-variant-alternates: inherit; font-variant-position: inherit; font-stretch: inherit; font-optical-sizing: inherit; font-kerning: inherit; font-feature-settings: inherit; font-variation-settings: inherit; vertical-align: baseline; transition: background-color 300ms ease-out; -webkit-tap-highlight-color: rgba(0, 0, 0, 0); text-align: left;&quot;&gt;tt5b_auto@etu.iut-tlse3.fr&lt;/a&gt;" style="rounded=0;whiteSpace=wrap;html=1;fillStyle=hatch;fillColor=none;" parent="1" vertex="1">
          <mxGeometry x="360" y="270" width="170" height="50" as="geometry" />
        </mxCell>
        <mxCell id="p2Pn64rqvdL8HzTHEJ3j-16" value="groupe DRC2.1&lt;br style=&quot;border-color: var(--border-color);&quot;&gt;TT3B1&lt;br style=&quot;border-color: var(--border-color);&quot;&gt;&lt;a style=&quot;box-sizing: inherit; font-family: Raleway, sans-serif; font-size: 1.1em; background-color: rgb(255, 255, 255); line-height: inherit; color: rgb(0, 144, 233); text-decoration-line: none; cursor: pointer; margin: 0px; padding: 0px; border: 0px; text-size-adjust: 100%; font-variant-numeric: inherit; font-variant-east-asian: inherit; font-variant-alternates: inherit; font-variant-position: inherit; font-stretch: inherit; font-optical-sizing: inherit; font-kerning: inherit; font-feature-settings: inherit; font-variation-settings: inherit; vertical-align: baseline; transition: background-color 300ms ease-out; -webkit-tap-highlight-color: rgba(0, 0, 0, 0); text-align: left;&quot; href=&quot;mailto:tt5b1_auto@etu.iut-tlse3.fr&quot;&gt;tt5b1_auto@etu.iut-tlse3.fr&lt;/a&gt;" style="rounded=0;whiteSpace=wrap;html=1;" parent="1" vertex="1">
          <mxGeometry x="630" y="240" width="170" height="50" as="geometry" />
        </mxCell>
        <mxCell id="p2Pn64rqvdL8HzTHEJ3j-17" value="groupe DRC2.2&lt;br style=&quot;border-color: var(--border-color);&quot;&gt;TT3B2&lt;br style=&quot;border-color: var(--border-color);&quot;&gt;&lt;a href=&quot;mailto:tt5b2_auto@etu.iut-tlse3.fr&quot; style=&quot;box-sizing: inherit; font-family: Raleway, sans-serif; font-size: 1.1em; background-color: rgb(255, 255, 255); line-height: inherit; color: rgb(0, 144, 233); text-decoration-line: none; cursor: pointer; margin: 0px; padding: 0px; border: 0px; text-size-adjust: 100%; font-variant-numeric: inherit; font-variant-east-asian: inherit; font-variant-alternates: inherit; font-variant-position: inherit; font-stretch: inherit; font-optical-sizing: inherit; font-kerning: inherit; font-feature-settings: inherit; font-variation-settings: inherit; vertical-align: baseline; transition: background-color 300ms ease-out; -webkit-tap-highlight-color: rgba(0, 0, 0, 0); text-align: left;&quot;&gt;tt5b2_auto@etu.iut-tlse3.fr&lt;/a&gt;" style="rounded=0;whiteSpace=wrap;html=1;" parent="1" vertex="1">
          <mxGeometry x="630" y="310" width="170" height="50" as="geometry" />
        </mxCell>
        <mxCell id="p2Pn64rqvdL8HzTHEJ3j-18" style="edgeStyle=orthogonalEdgeStyle;rounded=0;orthogonalLoop=1;jettySize=auto;html=1;exitX=1;exitY=0.5;exitDx=0;exitDy=0;entryX=-0.01;entryY=0.611;entryDx=0;entryDy=0;entryPerimeter=0;" parent="1" source="p2Pn64rqvdL8HzTHEJ3j-15" target="p2Pn64rqvdL8HzTHEJ3j-17" edge="1">
          <mxGeometry relative="1" as="geometry" />
        </mxCell>
        <mxCell id="p2Pn64rqvdL8HzTHEJ3j-26" style="edgeStyle=orthogonalEdgeStyle;rounded=0;orthogonalLoop=1;jettySize=auto;html=1;exitX=1;exitY=0.5;exitDx=0;exitDy=0;entryX=0;entryY=0.5;entryDx=0;entryDy=0;" parent="1" source="p2Pn64rqvdL8HzTHEJ3j-27" target="p2Pn64rqvdL8HzTHEJ3j-28" edge="1">
          <mxGeometry relative="1" as="geometry" />
        </mxCell>
        <mxCell id="p2Pn64rqvdL8HzTHEJ3j-27" value="groupe MDE1&lt;br style=&quot;border-color: var(--border-color);&quot;&gt;TT5C&lt;br style=&quot;border-color: var(--border-color);&quot;&gt;&lt;a style=&quot;border: 0px; box-sizing: inherit; font-family: Raleway, sans-serif; font-size: 1.1em; background-color: rgb(255, 255, 255); line-height: inherit; color: rgb(0, 144, 233); text-decoration-line: none; cursor: pointer; margin: 0px; padding: 0px; text-size-adjust: 100%; font-variant-numeric: inherit; font-variant-east-asian: inherit; font-variant-alternates: inherit; font-variant-position: inherit; font-stretch: inherit; font-optical-sizing: inherit; font-kerning: inherit; font-feature-settings: inherit; font-variation-settings: inherit; vertical-align: baseline; transition: background-color 300ms ease-out; -webkit-tap-highlight-color: rgba(0, 0, 0, 0); text-align: left;&quot; href=&quot;mailto:tt5c_auto@etu.iut-tlse3.fr&quot;&gt;tt5c_auto@etu.iut-tlse3.fr&lt;/a&gt;" style="rounded=0;whiteSpace=wrap;html=1;fillStyle=hatch;fillColor=#747474;" parent="1" vertex="1">
          <mxGeometry x="360" y="579" width="170" height="50" as="geometry" />
        </mxCell>
        <mxCell id="p2Pn64rqvdL8HzTHEJ3j-28" value="groupe MDE1.1&lt;br style=&quot;border-color: var(--border-color);&quot;&gt;TT5C1&lt;br style=&quot;border-color: var(--border-color);&quot;&gt;&lt;a href=&quot;mailto:tt5c1_auto@etu.iut-tlse3.fr&quot; style=&quot;box-sizing: inherit; font-family: Raleway, sans-serif; font-size: 1.1em; background-color: rgb(255, 255, 255); line-height: inherit; color: rgb(0, 144, 233); text-decoration-line: none; cursor: pointer; margin: 0px; padding: 0px; border: 0px; text-size-adjust: 100%; font-variant-numeric: inherit; font-variant-east-asian: inherit; font-variant-alternates: inherit; font-variant-position: inherit; font-stretch: inherit; font-optical-sizing: inherit; font-kerning: inherit; font-feature-settings: inherit; font-variation-settings: inherit; vertical-align: baseline; transition: background-color 300ms ease-out; -webkit-tap-highlight-color: rgba(0, 0, 0, 0); text-align: left;&quot;&gt;tt5c1_auto@etu.iut-tlse3.fr&lt;/a&gt;" style="rounded=0;whiteSpace=wrap;html=1;" parent="1" vertex="1">
          <mxGeometry x="630" y="549" width="170" height="50" as="geometry" />
        </mxCell>
        <mxCell id="p2Pn64rqvdL8HzTHEJ3j-29" value="groupe MDE1.2&lt;br style=&quot;border-color: var(--border-color);&quot;&gt;TT5C2&lt;br style=&quot;border-color: var(--border-color);&quot;&gt;&lt;a style=&quot;box-sizing: inherit; font-family: Raleway, sans-serif; font-size: 1.1em; background-color: rgb(255, 255, 255); line-height: inherit; color: rgb(0, 144, 233); text-decoration-line: none; cursor: pointer; margin: 0px; padding: 0px; border: 0px; text-size-adjust: 100%; font-variant-numeric: inherit; font-variant-east-asian: inherit; font-variant-alternates: inherit; font-variant-position: inherit; font-stretch: inherit; font-optical-sizing: inherit; font-kerning: inherit; font-feature-settings: inherit; font-variation-settings: inherit; vertical-align: baseline; transition: background-color 300ms ease-out; -webkit-tap-highlight-color: rgba(0, 0, 0, 0); text-align: left;&quot; href=&quot;mailto:tt5c2_auto@etu.iut-tlse3.fr&quot;&gt;tt5c2_auto@etu.iut-tlse3.fr&lt;/a&gt;" style="rounded=0;whiteSpace=wrap;html=1;" parent="1" vertex="1">
          <mxGeometry x="630" y="619" width="170" height="50" as="geometry" />
        </mxCell>
        <mxCell id="p2Pn64rqvdL8HzTHEJ3j-30" style="edgeStyle=orthogonalEdgeStyle;rounded=0;orthogonalLoop=1;jettySize=auto;html=1;exitX=1;exitY=0.5;exitDx=0;exitDy=0;entryX=-0.01;entryY=0.611;entryDx=0;entryDy=0;entryPerimeter=0;" parent="1" source="p2Pn64rqvdL8HzTHEJ3j-27" target="p2Pn64rqvdL8HzTHEJ3j-29" edge="1">
          <mxGeometry relative="1" as="geometry" />
        </mxCell>
        <mxCell id="p2Pn64rqvdL8HzTHEJ3j-32" style="edgeStyle=orthogonalEdgeStyle;rounded=0;orthogonalLoop=1;jettySize=auto;html=1;exitX=1;exitY=0.5;exitDx=0;exitDy=0;entryX=0;entryY=0.5;entryDx=0;entryDy=0;" parent="1" source="p2Pn64rqvdL8HzTHEJ3j-33" target="p2Pn64rqvdL8HzTHEJ3j-34" edge="1">
          <mxGeometry relative="1" as="geometry" />
        </mxCell>
        <mxCell id="p2Pn64rqvdL8HzTHEJ3j-33" value="groupe MPV1&lt;br style=&quot;border-color: var(--border-color);&quot;&gt;TT5G&lt;br style=&quot;border-color: var(--border-color);&quot;&gt;&lt;a href=&quot;mailto:tt5g_auto@etu.iut-tlse3.fr&quot; style=&quot;border: 0px; box-sizing: inherit; font-family: Raleway, sans-serif; font-size: 1.1em; background-color: rgb(255, 255, 255); line-height: inherit; color: rgb(0, 144, 233); text-decoration-line: none; cursor: pointer; margin: 0px; padding: 0px; text-size-adjust: 100%; font-variant-numeric: inherit; font-variant-east-asian: inherit; font-variant-alternates: inherit; font-variant-position: inherit; font-stretch: inherit; font-optical-sizing: inherit; font-kerning: inherit; font-feature-settings: inherit; font-variation-settings: inherit; vertical-align: baseline; transition: background-color 300ms ease-out 0s; -webkit-tap-highlight-color: rgba(0, 0, 0, 0); text-align: left;&quot;&gt;tt5g_auto@etu.iut-tlse3.fr&lt;/a&gt;" style="rounded=0;whiteSpace=wrap;html=1;fillStyle=hatch;fillColor=none;" parent="1" vertex="1">
          <mxGeometry x="360" y="892" width="170" height="50" as="geometry" />
        </mxCell>
        <mxCell id="p2Pn64rqvdL8HzTHEJ3j-34" value="groupe MPV1.1&lt;br style=&quot;border-color: var(--border-color);&quot;&gt;TT5G1&lt;br style=&quot;border-color: var(--border-color);&quot;&gt;&lt;a style=&quot;box-sizing: inherit; font-family: Raleway, sans-serif; font-size: 1.1em; background-color: rgb(255, 255, 255); line-height: inherit; color: rgb(0, 144, 233); text-decoration-line: none; cursor: pointer; margin: 0px; padding: 0px; border: 0px; text-size-adjust: 100%; font-variant-numeric: inherit; font-variant-east-asian: inherit; font-variant-alternates: inherit; font-variant-position: inherit; font-stretch: inherit; font-optical-sizing: inherit; font-kerning: inherit; font-feature-settings: inherit; font-variation-settings: inherit; vertical-align: baseline; transition: background-color 300ms ease-out 0s; -webkit-tap-highlight-color: rgba(0, 0, 0, 0); text-align: left;&quot; href=&quot;mailto:tt5g1_auto@etu.iut-tlse3.fr&quot;&gt;tt5g1_auto@etu.iut-tlse3.fr&lt;/a&gt;" style="rounded=0;whiteSpace=wrap;html=1;fillStyle=hatch;fillColor=#747474;" parent="1" vertex="1">
          <mxGeometry x="630" y="862" width="170" height="50" as="geometry" />
        </mxCell>
        <mxCell id="p2Pn64rqvdL8HzTHEJ3j-35" value="groupe MPV1.2&lt;br style=&quot;border-color: var(--border-color);&quot;&gt;TT5G2&lt;br style=&quot;border-color: var(--border-color);&quot;&gt;&lt;a href=&quot;mailto:tt5g2_auto@etu.iut-tlse3.fr&quot; style=&quot;box-sizing: inherit; font-family: Raleway, sans-serif; font-size: 1.1em; background-color: rgb(255, 255, 255); line-height: inherit; color: rgb(0, 144, 233); text-decoration-line: none; cursor: pointer; margin: 0px; padding: 0px; border: 0px; text-size-adjust: 100%; font-variant-numeric: inherit; font-variant-east-asian: inherit; font-variant-alternates: inherit; font-variant-position: inherit; font-stretch: inherit; font-optical-sizing: inherit; font-kerning: inherit; font-feature-settings: inherit; font-variation-settings: inherit; vertical-align: baseline; transition: background-color 300ms ease-out 0s; -webkit-tap-highlight-color: rgba(0, 0, 0, 0); text-align: left;&quot;&gt;tt5g2_auto@etu.iut-tlse3.fr&lt;/a&gt;" style="rounded=0;whiteSpace=wrap;html=1;fillStyle=hatch;fillColor=#747474;" parent="1" vertex="1">
          <mxGeometry x="630" y="932" width="170" height="50" as="geometry" />
        </mxCell>
        <mxCell id="p2Pn64rqvdL8HzTHEJ3j-36" style="edgeStyle=orthogonalEdgeStyle;rounded=0;orthogonalLoop=1;jettySize=auto;html=1;exitX=1;exitY=0.5;exitDx=0;exitDy=0;entryX=-0.01;entryY=0.611;entryDx=0;entryDy=0;entryPerimeter=0;" parent="1" source="p2Pn64rqvdL8HzTHEJ3j-33" target="p2Pn64rqvdL8HzTHEJ3j-35" edge="1">
          <mxGeometry relative="1" as="geometry" />
        </mxCell>
        <mxCell id="Y7sgMaPEG-YXRO2COyQE-1" style="edgeStyle=orthogonalEdgeStyle;rounded=0;orthogonalLoop=1;jettySize=auto;html=1;exitX=1;exitY=0.5;exitDx=0;exitDy=0;entryX=0;entryY=0.5;entryDx=0;entryDy=0;" parent="1" source="s7MB-vvQS7g_MF5XI4Nz-5" target="Y7sgMaPEG-YXRO2COyQE-3" edge="1">
          <mxGeometry relative="1" as="geometry">
            <mxPoint x="160" y="595" as="sourcePoint" />
          </mxGeometry>
        </mxCell>
        <mxCell id="Y7sgMaPEG-YXRO2COyQE-2" style="edgeStyle=orthogonalEdgeStyle;rounded=0;orthogonalLoop=1;jettySize=auto;html=1;exitX=1;exitY=0.5;exitDx=0;exitDy=0;entryX=0;entryY=0.5;entryDx=0;entryDy=0;" parent="1" source="Y7sgMaPEG-YXRO2COyQE-3" target="Y7sgMaPEG-YXRO2COyQE-4" edge="1">
          <mxGeometry relative="1" as="geometry" />
        </mxCell>
        <mxCell id="Y7sgMaPEG-YXRO2COyQE-3" value="groupe MDE2&lt;br style=&quot;border-color: var(--border-color);&quot;&gt;TT5D&lt;br style=&quot;border-color: var(--border-color);&quot;&gt;&lt;a href=&quot;mailto:tt5d_auto@etu.iut-tlse3.fr&quot; style=&quot;border: 0px; box-sizing: inherit; font-family: Raleway, sans-serif; font-size: 1.1em; background-color: rgb(255, 255, 255); line-height: inherit; color: rgb(0, 144, 233); text-decoration-line: none; cursor: pointer; margin: 0px; padding: 0px; text-size-adjust: 100%; font-variant-numeric: inherit; font-variant-east-asian: inherit; font-variant-alternates: inherit; font-variant-position: inherit; font-stretch: inherit; font-optical-sizing: inherit; font-kerning: inherit; font-feature-settings: inherit; font-variation-settings: inherit; vertical-align: baseline; transition: background-color 300ms ease-out; -webkit-tap-highlight-color: rgba(0, 0, 0, 0); text-align: left;&quot;&gt;tt5d_auto@etu.iut-tlse3.fr&lt;/a&gt;" style="rounded=0;whiteSpace=wrap;html=1;fillStyle=hatch;fillColor=#747474;" parent="1" vertex="1">
          <mxGeometry x="360" y="720" width="170" height="50" as="geometry" />
        </mxCell>
        <mxCell id="Y7sgMaPEG-YXRO2COyQE-4" value="groupe MDE2.1&lt;br style=&quot;border-color: var(--border-color);&quot;&gt;TT5D1&lt;br style=&quot;border-color: var(--border-color);&quot;&gt;&lt;a style=&quot;box-sizing: inherit; font-family: Raleway, sans-serif; font-size: 1.1em; background-color: rgb(255, 255, 255); line-height: inherit; color: rgb(0, 144, 233); text-decoration-line: none; cursor: pointer; margin: 0px; padding: 0px; border: 0px; text-size-adjust: 100%; font-variant-numeric: inherit; font-variant-east-asian: inherit; font-variant-alternates: inherit; font-variant-position: inherit; font-stretch: inherit; font-optical-sizing: inherit; font-kerning: inherit; font-feature-settings: inherit; font-variation-settings: inherit; vertical-align: baseline; transition: background-color 300ms ease-out; -webkit-tap-highlight-color: rgba(0, 0, 0, 0); text-align: left;&quot; href=&quot;mailto:tt5d1_auto@etu.iut-tlse3.fr&quot;&gt;tt5d1_auto@etu.iut-tlse3.fr&lt;/a&gt;" style="rounded=0;whiteSpace=wrap;html=1;" parent="1" vertex="1">
          <mxGeometry x="630" y="690" width="170" height="50" as="geometry" />
        </mxCell>
        <mxCell id="Y7sgMaPEG-YXRO2COyQE-5" value="groupe MDE2.2&lt;br style=&quot;border-color: var(--border-color);&quot;&gt;TT5D2&lt;br style=&quot;border-color: var(--border-color);&quot;&gt;&lt;a href=&quot;mailto:tt5d2_auto@etu.iut-tlse3.fr&quot; style=&quot;box-sizing: inherit; font-family: Raleway, sans-serif; font-size: 1.1em; background-color: rgb(255, 255, 255); line-height: inherit; color: rgb(0, 144, 233); text-decoration-line: none; cursor: pointer; margin: 0px; padding: 0px; border: 0px; text-size-adjust: 100%; font-variant-numeric: inherit; font-variant-east-asian: inherit; font-variant-alternates: inherit; font-variant-position: inherit; font-stretch: inherit; font-optical-sizing: inherit; font-kerning: inherit; font-feature-settings: inherit; font-variation-settings: inherit; vertical-align: baseline; transition: background-color 300ms ease-out; -webkit-tap-highlight-color: rgba(0, 0, 0, 0); text-align: left;&quot;&gt;tt5d2_auto@etu.iut-tlse3.fr&lt;/a&gt;" style="rounded=0;whiteSpace=wrap;html=1;" parent="1" vertex="1">
          <mxGeometry x="630" y="760" width="170" height="50" as="geometry" />
        </mxCell>
        <mxCell id="Y7sgMaPEG-YXRO2COyQE-6" style="edgeStyle=orthogonalEdgeStyle;rounded=0;orthogonalLoop=1;jettySize=auto;html=1;exitX=1;exitY=0.5;exitDx=0;exitDy=0;entryX=-0.01;entryY=0.611;entryDx=0;entryDy=0;entryPerimeter=0;" parent="1" source="Y7sgMaPEG-YXRO2COyQE-3" target="Y7sgMaPEG-YXRO2COyQE-5" edge="1">
          <mxGeometry relative="1" as="geometry" />
        </mxCell>
        <mxCell id="Y7sgMaPEG-YXRO2COyQE-8" style="edgeStyle=orthogonalEdgeStyle;rounded=0;orthogonalLoop=1;jettySize=auto;html=1;exitX=1;exitY=0.5;exitDx=0;exitDy=0;entryX=0;entryY=0.5;entryDx=0;entryDy=0;" parent="1" source="Y7sgMaPEG-YXRO2COyQE-9" target="Y7sgMaPEG-YXRO2COyQE-10" edge="1">
          <mxGeometry relative="1" as="geometry" />
        </mxCell>
        <mxCell id="Y7sgMaPEG-YXRO2COyQE-9" value="groupe DRCBA1&lt;br style=&quot;border-color: var(--border-color);&quot;&gt;TT5E&lt;br style=&quot;border-color: var(--border-color);&quot;&gt;&lt;a href=&quot;mailto:tt5e_auto@etu.iut-tlse3.fr&quot; style=&quot;border: 0px; box-sizing: inherit; font-family: Raleway, sans-serif; font-size: 1.1em; background-color: rgb(255, 255, 255); line-height: inherit; color: rgb(0, 144, 233); text-decoration-line: none; cursor: pointer; margin: 0px; padding: 0px; text-size-adjust: 100%; font-variant-numeric: inherit; font-variant-east-asian: inherit; font-variant-alternates: inherit; font-variant-position: inherit; font-stretch: inherit; font-optical-sizing: inherit; font-kerning: inherit; font-feature-settings: inherit; font-variation-settings: inherit; vertical-align: baseline; transition: background-color 300ms ease-out 0s; -webkit-tap-highlight-color: rgba(0, 0, 0, 0); text-align: left;&quot;&gt;tt5e_auto@etu.iut-tlse3.fr&lt;/a&gt;" style="rounded=0;whiteSpace=wrap;html=1;fillStyle=hatch;fillColor=none;" parent="1" vertex="1">
          <mxGeometry x="360" y="410" width="170" height="50" as="geometry" />
        </mxCell>
        <mxCell id="Y7sgMaPEG-YXRO2COyQE-10" value="groupe DRCBA1.1&lt;br style=&quot;border-color: var(--border-color);&quot;&gt;TT5E1&lt;br style=&quot;border-color: var(--border-color);&quot;&gt;&lt;a style=&quot;box-sizing: inherit; font-family: Raleway, sans-serif; font-size: 1.1em; background-color: rgb(255, 255, 255); line-height: inherit; color: rgb(0, 144, 233); text-decoration-line: none; cursor: pointer; margin: 0px; padding: 0px; border: 0px; text-size-adjust: 100%; font-variant-numeric: inherit; font-variant-east-asian: inherit; font-variant-alternates: inherit; font-variant-position: inherit; font-stretch: inherit; font-optical-sizing: inherit; font-kerning: inherit; font-feature-settings: inherit; font-variation-settings: inherit; vertical-align: baseline; transition: background-color 300ms ease-out 0s; -webkit-tap-highlight-color: rgba(0, 0, 0, 0); text-align: left;&quot; href=&quot;mailto:tt5e1_auto@etu.iut-tlse3.fr&quot;&gt;tt5e1_auto@etu.iut-tlse3.fr&lt;/a&gt;" style="rounded=0;whiteSpace=wrap;html=1;fillStyle=hatch;fillColor=#747474;" parent="1" vertex="1">
          <mxGeometry x="630" y="380" width="170" height="50" as="geometry" />
        </mxCell>
        <mxCell id="Y7sgMaPEG-YXRO2COyQE-11" value="groupe DRCBA1.2&lt;br style=&quot;border-color: var(--border-color);&quot;&gt;TT5E2&lt;br style=&quot;border-color: var(--border-color);&quot;&gt;&lt;a href=&quot;mailto:tt5e2_auto@etu.iut-tlse3.fr&quot; style=&quot;box-sizing: inherit; font-family: Raleway, sans-serif; font-size: 1.1em; background-color: rgb(255, 255, 255); line-height: inherit; color: rgb(0, 144, 233); text-decoration-line: none; cursor: pointer; margin: 0px; padding: 0px; border: 0px; text-size-adjust: 100%; font-variant-numeric: inherit; font-variant-east-asian: inherit; font-variant-alternates: inherit; font-variant-position: inherit; font-stretch: inherit; font-optical-sizing: inherit; font-kerning: inherit; font-feature-settings: inherit; font-variation-settings: inherit; vertical-align: baseline; transition: background-color 300ms ease-out 0s; -webkit-tap-highlight-color: rgba(0, 0, 0, 0); text-align: left;&quot;&gt;tt5e2_auto@etu.iut-tlse3.fr&lt;/a&gt;" style="rounded=0;whiteSpace=wrap;html=1;fillStyle=hatch;fillColor=#747474;" parent="1" vertex="1">
          <mxGeometry x="630" y="450" width="170" height="50" as="geometry" />
        </mxCell>
        <mxCell id="Y7sgMaPEG-YXRO2COyQE-12" style="edgeStyle=orthogonalEdgeStyle;rounded=0;orthogonalLoop=1;jettySize=auto;html=1;exitX=1;exitY=0.5;exitDx=0;exitDy=0;entryX=-0.01;entryY=0.611;entryDx=0;entryDy=0;entryPerimeter=0;" parent="1" source="Y7sgMaPEG-YXRO2COyQE-9" target="Y7sgMaPEG-YXRO2COyQE-11" edge="1">
          <mxGeometry relative="1" as="geometry" />
        </mxCell>
        <mxCell id="zf794vr-wGnuXbDl1zNP-2" value="" style="endArrow=none;dashed=1;html=1;rounded=0;" parent="1" edge="1">
          <mxGeometry width="50" height="50" relative="1" as="geometry">
            <mxPoint x="4" y="1040" as="sourcePoint" />
            <mxPoint x="824" y="1040" as="targetPoint" />
          </mxGeometry>
        </mxCell>
        <mxCell id="zf794vr-wGnuXbDl1zNP-3" value="CPSI" style="ellipse;whiteSpace=wrap;html=1;fontSize=15;" parent="1" vertex="1">
          <mxGeometry x="55" y="1060" width="110" height="70" as="geometry" />
        </mxCell>
        <mxCell id="zf794vr-wGnuXbDl1zNP-4" value="&lt;a href=&quot;mailto:tc.lp-cpsi_auto@etu.iut-tlse3.fr&quot;&gt;tc.lp-cpsi_auto@etu.iut-tlse3.fr&lt;/a&gt;" style="text;html=1;strokeColor=none;fillColor=none;align=left;verticalAlign=middle;whiteSpace=wrap;rounded=0;fontSize=15;fontColor=#055AB2;" parent="1" vertex="1">
          <mxGeometry x="5" y="1130" width="210" height="30" as="geometry" />
        </mxCell>
      </root>
    </mxGraphModel>
  </diagram>
</mxfile>
